<svg width="25" height="24" viewBox="0 0 25 24" fill="none" xmlns="http://www.w3.org/2000/svg">
<path d="M12.041 0.0107582C12.4873 -0.0538474 12.9732 0.172504 13.1416 0.690445L15.334 7.43751C15.4512 7.79788 15.7595 8.05624 16.125 8.11524L16.2851 8.12794H23.3789C24.3473 8.12822 24.7501 9.36809 23.9668 9.93751L18.2275 14.1074C17.8771 14.3621 17.7304 14.8136 17.8642 15.2256L20.0566 21.9717C20.3371 22.8353 19.4274 23.5631 18.667 23.1816L18.5175 23.0898L12.7783 18.9199C12.6031 18.7926 12.3967 18.7285 12.1904 18.7285V18.7295C11.9842 18.7295 11.7777 18.7926 11.6025 18.9199L5.86325 23.0898C5.71647 23.1964 5.56033 23.2567 5.40524 23.2773C5.30149 23.2912 5.19811 23.2874 5.0986 23.2686C4.94972 23.2404 4.80897 23.1782 4.68747 23.0898C4.36323 22.8543 4.17458 22.4323 4.32419 21.9717L6.02731 16.7305L6.51657 15.2246C6.63362 14.8641 6.53644 14.4735 6.27536 14.2109L6.15329 14.1074L0.414029 9.93751C0.218074 9.79506 0.0962409 9.61053 0.0390292 9.41407C-0.0610684 9.0707 0.0358658 8.68989 0.278287 8.43263C0.451508 8.2487 0.699277 8.12802 1.00192 8.12794H8.09567C8.09828 8.12794 8.10088 8.12698 8.10348 8.12696C8.53361 8.12387 8.9136 7.84703 9.04684 7.43751L11.2392 0.690445C11.3141 0.459971 11.4519 0.287052 11.6211 0.171891C11.7054 0.114531 11.7975 0.0717177 11.8935 0.0429847C11.9418 0.0285082 11.9912 0.0179768 12.041 0.0107582ZM12.1904 16.7305C12.7321 16.7306 13.2737 16.8754 13.7529 17.168L13.9541 17.3018L17.2021 19.6621L15.9619 15.8428C15.5605 14.6069 16.0005 13.2531 17.0517 12.4893L20.3017 10.1279H16.2851C14.9856 10.1279 13.8333 9.29155 13.4316 8.05567L12.1904 4.23536V16.7305Z" fill="#3D4637"/>
</svg>
